<?xml version="1.0" standalone="no"?>
<!DOCTYPE svg PUBLIC "-//W3C//DTD SVG 20010904//EN"
 "http://www.w3.org/TR/2001/REC-SVG-20010904/DTD/svg10.dtd">
<svg version="1.0" xmlns="http://www.w3.org/2000/svg"
 width="40" height="40" viewBox="0 0 512.000000 512.000000"
 preserveAspectRatio="xMidYMid meet">
<metadata>
Created by potrace 1.16, written by Peter Selinger 2001-2019
</metadata>
<g transform="translate(0.000000,512.000000) scale(0.100000,-0.100000)"
fill="#475be8" stroke="none">
<path d="M2275 5074 c-16 -2 -80 -11 -142 -20 -399 -54 -807 -224 -1138 -473
-128 -96 -267 -224 -360 -330 -90 -103 -100 -120 -91 -155 9 -38 34 -56 75
-56 35 0 45 7 125 95 l87 94 77 -65 c107 -91 315 -228 455 -299 65 -33 115
-65 113 -71 -8 -22 -64 -289 -76 -361 l-12 -72 -216 -3 c-210 -3 -219 -4 -272
-29 -66 -32 -123 -86 -158 -154 -27 -49 -27 -53 -30 -287 l-3 -238 -280 0
-279 0 6 73 c30 378 129 707 314 1037 21 38 29 63 25 80 -15 62 -84 84 -129
41 -31 -29 -133 -227 -189 -367 -83 -205 -134 -403 -162 -633 -21 -166 -16
-540 9 -695 67 -411 229 -792 477 -1122 90 -120 274 -312 399 -416 583 -487
1346 -677 2110 -527 280 55 591 181 833 336 44 28 72 41 77 34 3 -6 12 -72 18
-147 10 -120 15 -143 40 -188 73 -130 269 -158 369 -53 18 17 64 88 103 157
39 69 82 136 96 150 l25 25 171 -3 c200 -4 239 4 302 60 59 51 80 106 74 196
-4 80 -33 132 -102 182 -42 31 -102 40 -123 19 -8 -8 -31 4 -86 45 -63 48 -73
60 -69 81 8 46 -7 70 -73 119 -36 26 -65 52 -65 57 0 5 25 51 56 102 173 286
288 623 336 987 20 156 15 499 -10 665 -57 371 -189 714 -391 1016 -252 378
-570 659 -972 858 -242 120 -475 195 -739 236 -100 16 -531 29 -605 19z m371
-173 c238 -79 479 -393 637 -831 71 -195 78 -170 -60 -213 -223 -70 -395 -101
-628 -113 -267 -13 -618 39 -865 128 -53 19 -64 27 -62 43 9 47 98 279 148
384 233 488 528 702 830 602z m-657 -68 c-178 -187 -343 -485 -444 -803 -10
-30 -21 -59 -25 -63 -20 -22 -354 181 -508 308 l-72 59 27 23 c291 242 584
397 926 489 67 18 126 33 132 33 5 1 -11 -20 -36 -46z m1090 22 c319 -81 653
-248 905 -454 42 -34 76 -64 76 -66 0 -10 -194 -159 -280 -214 -97 -63 -289
-166 -295 -159 -3 2 -20 50 -40 106 -110 316 -253 574 -412 742 -36 39 -62 70
-59 70 4 0 51 -11 105 -25z m1180 -719 c340 -380 549 -875 587 -1389 l7 -97
-279 2 -279 3 -5 235 c-4 196 -8 242 -23 274 -31 70 -83 123 -154 158 l-67 33
-216 3 -216 3 -18 110 c-10 61 -31 160 -45 222 l-27 112 127 66 c153 80 290
170 424 278 77 61 103 77 111 68 6 -7 39 -43 73 -81z m-2434 -451 c472 -133
1002 -123 1453 29 56 19 104 31 106 27 5 -8 76 -352 76 -369 0 -9 -219 -12
-960 -12 l-960 0 4 23 c3 12 13 60 21 107 9 47 25 124 36 172 l20 87 42 -15
c23 -8 96 -30 162 -49z m2194 -485 c39 -11 86 -51 107 -92 11 -22 14 -117 14
-536 l0 -509 -22 -33 c-30 -44 -66 -69 -114 -80 -56 -13 -2946 -12 -3003 1
-60 13 -100 44 -122 93 -17 38 -19 75 -19 529 0 417 2 493 15 524 21 50 42 72
90 94 38 18 106 19 1530 19 944 0 1503 -4 1524 -10z m-3309 -920 c0 -268 9
-302 99 -391 86 -84 114 -92 367 -97 l212 -4 17 -96 c9 -54 30 -153 45 -222
15 -69 27 -126 26 -126 0 -1 -56 -29 -124 -64 -136 -68 -298 -173 -411 -265
-125 -102 -105 -100 -178 -20 -273 299 -475 690 -556 1080 -23 109 -36 200
-52 368 l-5 57 280 0 280 0 0 -220z m4136 128 c-15 -212 -77 -488 -151 -678
-41 -104 -146 -314 -198 -397 l-33 -53 -133 99 c-174 129 -232 146 -337 97
-95 -44 -140 -129 -132 -251 2 -36 2 -64 -2 -63 -3 2 -48 28 -100 59 -52 32
-126 72 -163 90 -61 30 -68 37 -64 59 2 14 21 104 41 200 20 96 36 185 36 197
0 21 3 21 218 25 209 3 219 4 272 29 66 31 131 93 162 157 22 44 23 60 26 285
l3 237 281 0 281 0 -7 -92z m-1386 -620 c0 -40 -69 -360 -80 -372 -5 -4 -50 6
-102 23 -220 73 -435 110 -688 118 -238 8 -345 -2 -376 -33 -31 -30 -30 -68 0
-99 l25 -25 173 7 c300 10 547 -25 835 -119 109 -35 106 -13 31 -218 -195
-530 -478 -839 -769 -840 -143 0 -259 52 -388 176 -167 159 -305 398 -417 724
l-42 124 31 14 c18 7 86 29 152 48 125 36 155 55 155 99 0 12 -10 35 -22 50
-20 25 -26 27 -72 22 -28 -3 -104 -23 -168 -45 l-117 -39 -20 86 c-11 47 -29
134 -39 194 l-19 107 958 0 c528 0 959 -1 959 -2z m331 -764 l96 -63 7 -98 c4
-54 10 -114 13 -134 l5 -37 -120 -80 c-209 -138 -470 -253 -706 -313 -45 -11
-90 -23 -101 -26 -11 -3 9 25 49 68 163 178 340 506 432 801 l18 58 105 -56
c58 -31 149 -85 202 -120z m-2222 31 c117 -318 221 -506 384 -696 l74 -86 -81
19 c-232 54 -532 186 -741 326 -123 83 -255 186 -255 200 0 13 146 128 251
198 102 68 298 175 312 171 5 -1 30 -61 56 -132z"/>
<path d="M1137 2969 c-40 -24 -39 -45 33 -406 63 -321 71 -350 95 -370 36 -32
80 -30 113 5 21 21 42 76 91 235 38 121 67 203 72 195 4 -7 34 -103 68 -213
48 -156 67 -205 87 -222 35 -32 79 -30 113 5 25 25 33 55 94 362 37 184 67
343 67 353 0 27 -45 67 -75 67 -55 0 -68 -30 -110 -240 -21 -107 -41 -201 -44
-207 -4 -7 -35 80 -70 195 -66 216 -85 252 -131 252 -48 0 -67 -24 -100 -133
-80 -259 -103 -328 -107 -324 -2 3 -21 95 -43 206 -21 110 -44 209 -49 220
-17 31 -68 41 -104 20z"/>
<path d="M2092 2957 c-12 -13 -22 -34 -22 -46 0 -13 30 -173 66 -357 70 -349
76 -366 129 -380 35 -9 83 14 99 45 7 14 39 112 71 216 31 105 60 193 64 198
4 4 36 -88 71 -203 35 -116 72 -219 82 -230 10 -11 30 -23 43 -26 31 -8 82 12
96 38 13 25 139 653 139 695 0 85 -113 102 -139 21 -5 -18 -27 -118 -47 -221
-20 -103 -40 -184 -44 -180 -3 4 -35 102 -70 216 -67 218 -77 237 -130 237
-15 0 -34 -6 -44 -13 -11 -8 -43 -94 -86 -233 -38 -120 -71 -212 -74 -204 -3
8 -23 105 -44 215 -33 165 -44 202 -62 217 -31 25 -72 23 -98 -5z"/>
<path d="M3067 2969 c-40 -24 -39 -45 33 -406 64 -319 72 -350 95 -370 36 -32
80 -30 113 5 21 21 42 76 91 235 36 116 68 202 72 195 4 -7 34 -103 68 -213
48 -154 68 -205 87 -222 35 -32 79 -30 113 5 25 25 33 55 94 362 37 184 67
343 67 353 0 27 -45 67 -75 67 -55 0 -68 -30 -110 -240 -21 -107 -41 -201 -44
-208 -4 -7 -35 81 -70 195 -66 217 -84 253 -131 253 -48 0 -67 -24 -100 -133
-79 -257 -102 -328 -106 -324 -3 2 -20 87 -40 188 -41 217 -50 246 -74 259
-24 13 -60 12 -83 -1z"/>
</g>
</svg>
